<svg width="40" height="37" viewBox="0 0 40 37" fill="none" xmlns="http://www.w3.org/2000/svg">
<path d="M19.532 7.06035L20.3732 8.37285L21.2155 7.06106C24.3568 2.16863 28.7332 1.20881 32.2714 2.58181C35.8767 3.98086 38.8298 7.88379 38.8298 13.1871C38.8298 15.0292 37.861 17.2745 36.1996 19.7273C34.5581 22.1507 32.3339 24.6424 30.0285 26.9498C27.7273 29.253 25.3691 31.3491 23.4741 32.9835C22.7934 33.5706 22.1758 34.0953 21.6402 34.5503C21.4292 34.7295 21.231 34.8979 21.0466 35.0551C20.7988 35.2664 20.5697 35.4625 20.3676 35.6387C20.1546 35.4583 19.9125 35.2581 19.6513 35.0434C19.3848 34.8245 19.093 34.5863 18.7769 34.3284C18.2819 33.9244 17.7276 33.472 17.1187 32.9695C15.1371 31.334 12.6639 29.2371 10.2474 26.9329C7.82632 24.6243 5.48806 22.1318 3.76185 19.708C2.01267 17.2518 1 15.0138 1 13.1871C1 7.87887 4.1486 3.96102 8.0028 2.55655C11.8074 1.17013 16.4118 2.19163 19.532 7.06035Z" fill="#FFF7BB" stroke="#FFF7BB" stroke-width="2"/>
</svg>
