<svg width="215" height="386" viewBox="0 0 215 386" fill="none" xmlns="http://www.w3.org/2000/svg">
<path d="M212.38 341.453C212.449 341.455 212.481 341.56 212.476 341.768C212.471 341.977 212.433 342.08 212.364 342.078C211.078 342.045 210.137 342.108 209.542 342.267C208.912 342.425 208.487 342.744 208.266 343.225C208.009 343.74 207.867 344.519 207.841 345.561L207.222 369.696C207.196 370.739 207.298 371.506 207.528 371.999C207.724 372.491 208.133 372.832 208.754 373.021C209.339 373.245 210.275 373.373 211.561 373.406C211.63 373.408 211.662 373.513 211.657 373.722C211.652 373.93 211.614 374.034 211.545 374.032L208.836 373.91C207.308 373.802 206.093 373.736 205.189 373.712C204.182 373.687 202.947 373.69 201.486 373.722L198.93 373.709C198.826 373.706 198.776 373.6 198.782 373.392C198.787 373.183 198.842 373.08 198.946 373.083C200.128 373.113 200.999 373.031 201.561 372.837C202.121 372.678 202.512 372.357 202.733 371.876C202.919 371.394 203.025 370.632 203.052 369.589L203.668 345.559C203.698 344.377 203.666 343.594 203.572 343.209C203.443 342.823 203.171 342.573 202.756 342.458C202.342 342.343 201.475 342.269 200.154 342.235L192.909 342.049C191.553 342.014 190.631 342.043 190.142 342.135C189.652 342.261 189.35 342.514 189.236 342.894C189.086 343.307 188.997 344.07 188.968 345.182L188.352 369.212C188.326 370.255 188.41 371.022 188.606 371.514C188.768 372.005 189.124 372.344 189.676 372.532C190.226 372.755 191.093 372.882 192.274 372.912C192.378 372.915 192.428 373.02 192.422 373.229C192.417 373.437 192.362 373.54 192.258 373.538C189.029 373.35 186.98 373.246 186.111 373.224C185.242 373.201 184.077 373.206 182.616 373.238L180.008 373.224C179.904 373.221 179.855 373.115 179.86 372.907C179.865 372.698 179.92 372.595 180.024 372.598C181.206 372.628 182.095 372.547 182.691 372.353C183.251 372.194 183.642 371.874 183.863 371.392C184.049 370.91 184.156 370.148 184.182 369.106L184.8 345.023C184.826 343.981 184.741 343.231 184.544 342.774C184.346 342.351 184.006 342.082 183.522 341.965C183.003 341.847 182.101 341.772 180.815 341.739L173.987 341.564C172.597 341.529 171.674 341.557 171.22 341.65C170.731 341.742 170.429 341.977 170.315 342.357C170.165 342.77 170.076 343.55 170.046 344.697L169.431 368.728C169.404 369.77 169.489 370.537 169.685 371.029C169.846 371.52 170.22 371.86 170.806 372.049C171.357 372.272 172.223 372.398 173.404 372.428C173.474 372.43 173.506 372.535 173.5 372.744C173.495 372.952 173.458 373.056 173.388 373.054L170.835 372.936C169.308 372.828 168.058 372.761 167.085 372.736C166.147 372.712 164.947 372.716 163.486 372.748L160.826 372.732C160.721 372.729 160.672 372.624 160.677 372.415C160.683 372.207 160.738 372.104 160.842 372.106C162.128 372.139 163.086 372.06 163.717 371.867C164.312 371.709 164.72 371.389 164.941 370.908C165.162 370.426 165.286 369.665 165.313 368.622L165.931 344.487C165.958 343.445 165.873 342.678 165.677 342.186C165.446 341.693 165.038 341.335 164.453 341.111C163.832 340.921 162.896 340.811 161.645 340.778C161.54 340.776 161.491 340.67 161.496 340.462C161.502 340.253 161.556 340.15 161.661 340.153L212.38 341.453Z" fill="#FFF7BB"/>
<path d="M108.999 311.319C108.875 311.256 108.86 311.132 108.953 310.945C109.047 310.759 109.156 310.697 109.28 310.759C109.87 311.056 110.802 311.562 112.076 312.279C113.288 312.965 114.189 313.456 114.779 313.752C115.494 314.111 116.395 314.524 117.482 314.992C118.57 315.46 119.378 315.826 119.906 316.091C120.03 316.154 120.046 316.278 119.952 316.465C119.859 316.651 119.75 316.713 119.625 316.651C118.569 316.121 117.761 315.832 117.201 315.784C116.626 315.768 116.206 316.024 115.941 316.552C115.676 317.08 115.543 317.927 115.541 319.093L115.335 332.525L123.91 336.828L132.152 329.937C133.101 329.13 133.748 328.385 134.091 327.702C135.104 325.682 134.104 323.916 131.09 322.404C130.935 322.326 130.904 322.194 130.997 322.007C131.091 321.821 131.215 321.767 131.371 321.845C131.93 322.125 132.722 322.562 133.747 323.154C134.897 323.808 135.907 324.354 136.777 324.791C137.584 325.196 138.563 325.648 139.713 326.147C140.738 326.584 141.562 326.958 142.183 327.27C142.307 327.333 142.323 327.457 142.229 327.643C142.136 327.83 142.027 327.892 141.903 327.83C141.033 327.393 140.217 327.197 139.455 327.243C138.662 327.273 137.775 327.567 136.795 328.125C135.815 328.684 134.554 329.607 133.013 330.895L111.604 348.796C111.526 348.874 111.394 348.866 111.207 348.773C111.005 348.71 110.92 348.609 110.951 348.469L111.296 319.763C111.378 316.965 111.248 314.975 110.908 313.793C110.568 312.611 109.932 311.786 108.999 311.319ZM122.953 337.69L115.31 333.854L115.108 344.254L122.953 337.69Z" fill="#FFF7BB"/>
<path d="M66.9758 292.281C64.5298 289.525 63.0884 286.854 62.6515 284.267C62.2146 281.68 63.1271 279.383 65.389 277.375C66.819 276.106 68.4044 275.326 70.1454 275.036C71.8634 274.72 73.6011 274.897 75.3587 275.568C77.0903 276.262 78.6599 277.403 80.0675 278.988C80.6906 279.69 81.3784 280.544 82.1312 281.549C82.4513 281.962 82.8406 282.453 83.2992 283.022C83.7578 283.591 84.2756 284.201 84.8524 284.851L87.3144 287.546C87.7788 288.017 88.3802 288.669 89.1186 289.5C89.1879 289.578 89.1445 289.687 88.9885 289.825C88.8325 289.964 88.7199 289.994 88.6507 289.916C87.8199 288.98 87.1434 288.349 86.6212 288.022C86.0989 287.695 85.5865 287.616 85.0841 287.783C84.5557 287.973 83.9015 288.414 83.1215 289.106L65.0652 305.132C64.2852 305.824 63.7825 306.41 63.557 306.889C63.3314 307.368 63.3498 307.886 63.6121 308.444C63.8253 308.998 64.3473 309.743 65.178 310.679C65.2241 310.731 65.1692 310.827 65.0132 310.965C64.8572 311.104 64.7562 311.147 64.71 311.095L50.7955 295.417C50.5878 295.183 50.4999 295.006 50.5317 294.885C50.5405 294.737 50.6749 294.548 50.9349 294.318L55.7843 289.177C55.8623 289.108 55.9835 289.139 56.148 289.272C56.2634 289.402 56.2936 289.515 56.2387 289.61C54.8776 291.376 54.159 293.106 54.0826 294.801C53.9832 296.469 54.5104 297.953 55.6642 299.253L57.4641 301.281C58.1794 302.087 58.7882 302.616 59.2903 302.868C59.7664 303.142 60.2557 303.196 60.7581 303.029C61.2606 302.862 61.8628 302.467 62.5648 301.844L69.9745 295.267C68.8061 294.213 67.8065 293.217 66.9758 292.281ZM79.9452 280.422C78.2145 278.472 76.4889 277.47 74.7684 277.417C73.0248 277.338 71.217 278.129 69.3451 279.79C67.0052 281.867 65.846 283.965 65.8675 286.084C65.866 288.177 66.8459 290.328 68.8073 292.538C69.4765 293.292 70.1515 293.948 70.8324 294.506L80.387 286.025C81.245 285.264 81.6858 284.478 81.7095 283.666C81.7102 282.829 81.122 281.748 79.9452 280.422Z" fill="#FFF7BB"/>
<path d="M43.6245 205.818C43.5768 205.687 43.651 205.586 43.847 205.515C44.043 205.444 44.1647 205.473 44.2124 205.604C44.4385 206.224 44.757 207.2 45.1678 208.53C45.5786 209.86 45.8971 210.836 46.1232 211.456C46.397 212.207 46.7689 213.126 47.239 214.213C47.6852 215.234 48.0154 216.039 48.2297 216.627C48.2773 216.757 48.2031 216.859 48.0071 216.93C47.8112 217.001 47.6894 216.972 47.6418 216.841C47.2133 215.665 46.8117 214.868 46.4372 214.45C46.0182 214.01 45.531 213.892 44.9758 214.094C44.4858 214.273 43.8343 214.769 43.0211 215.584L25.1031 233.879L47.7707 235.164C48.9053 235.232 49.8808 235.117 50.6974 234.819C52.755 234.069 53.2065 232.11 52.0519 228.942C51.9924 228.779 52.0606 228.661 52.2566 228.59C52.4525 228.518 52.5803 228.564 52.6398 228.728C52.8541 229.316 53.1309 230.177 53.4703 231.311C53.8573 232.576 54.2174 233.666 54.5507 234.58C54.8483 235.397 55.244 236.381 55.7378 237.533C56.1602 238.489 56.4964 239.31 56.7464 239.996C56.8059 240.159 56.7377 240.276 56.5417 240.348C56.3458 240.419 56.218 240.373 56.1585 240.21C55.8252 239.296 55.3822 238.587 54.8294 238.086C54.2321 237.564 53.3854 237.169 52.2893 236.903C51.1931 236.636 49.665 236.453 47.7047 236.354L19.7356 234.837C19.6138 234.807 19.5172 234.694 19.4458 234.498C19.3744 234.302 19.3817 234.17 19.4678 234.102L39.5181 213.586C41.4977 211.606 42.7692 210.07 43.3327 208.977C43.8962 207.883 43.9935 206.831 43.6245 205.818Z" fill="#FFF7BB"/>
<path d="M45.4374 156.993C45.2923 160.223 44.4161 163.072 42.809 165.54C41.1686 167.971 39.0323 169.824 36.4001 171.098C33.7347 172.335 30.8739 172.885 27.8179 172.748C24.241 172.587 21.2256 171.547 18.7716 169.627C16.2829 167.706 14.4593 165.31 13.3008 162.439C12.1439 159.534 11.6317 156.605 11.7643 153.653C11.9126 150.354 12.8242 147.489 14.4993 145.059C16.1397 142.628 18.257 140.809 20.8514 139.603C23.4474 138.363 26.1692 137.806 29.0168 137.934C32.177 138.076 35.0393 139.04 37.6037 140.826C40.1681 142.611 42.1511 144.945 43.5527 147.826C44.9558 150.673 45.5841 153.729 45.4374 156.993ZM44.3733 155.118C44.4732 152.896 43.9899 150.873 42.9235 149.051C41.8571 147.228 40.2526 145.764 38.11 144.659C35.9343 143.517 33.3184 142.877 30.2624 142.74C27.0327 142.595 24.1246 143.039 21.538 144.071C18.953 145.068 16.901 146.594 15.382 148.648C13.8645 150.668 13.0434 153.067 12.9186 155.845C12.7563 159.457 13.8627 162.325 16.2378 164.45C18.5783 166.573 21.9016 167.732 26.2078 167.925C29.5068 168.074 32.5191 167.635 35.2446 166.609C37.9701 165.583 40.1429 164.08 41.763 162.1C43.3846 160.085 44.2547 157.758 44.3733 155.118Z" fill="#FFF7BB"/>
<path d="M71.5659 78.891C71.6099 78.7964 71.7265 78.7931 71.9156 78.8811C72.1047 78.9691 72.1772 79.0604 72.1332 79.1549C71.664 80.1635 71.2744 80.9599 70.9642 81.5441L69.3333 84.9261L67.643 88.683C67.4253 89.2335 67.0965 89.9815 66.6566 90.9271C66.6126 91.0216 66.496 91.0249 66.3069 90.9369C66.1178 90.849 66.0452 90.7577 66.0892 90.6631C66.6464 89.4654 66.9782 88.5463 67.0845 87.9056C67.1909 87.265 67.0674 86.7474 66.7141 86.353C66.3293 85.944 65.6642 85.5195 64.7186 85.0796L53.7029 79.9548L45.6968 97.1639L56.7125 102.289C57.6581 102.729 58.4112 102.964 58.972 102.995C59.5012 103.011 59.9766 102.772 60.3981 102.278C60.8197 101.784 61.309 100.938 61.8662 99.7405C61.8956 99.6774 62.0048 99.6899 62.1939 99.7779C62.383 99.8659 62.4629 99.9414 62.4336 100.004C61.9643 101.013 61.5747 101.809 61.2646 102.394L59.5237 106.012L58.0093 109.391C57.7622 110.004 57.3968 110.831 56.9129 111.871C56.8836 111.934 56.7743 111.922 56.5852 111.834C56.3961 111.746 56.3162 111.67 56.3455 111.607C56.8881 110.441 57.2052 109.553 57.2969 108.944C57.4032 108.304 57.2798 107.786 56.9265 107.392C56.5563 106.951 55.8985 106.511 54.9529 106.071L33.0633 95.8874C32.1178 95.4475 31.3804 95.2194 30.8512 95.2033C30.3219 95.1871 29.8539 95.4102 29.447 95.8727C29.0086 96.3206 28.5182 97.1276 27.9756 98.2938C27.9316 98.3883 27.8151 98.3916 27.626 98.3036C27.4369 98.2157 27.3643 98.1244 27.4083 98.0298L28.5773 95.6407C29.2562 94.3462 29.8009 93.2577 30.2115 92.3752C30.6807 91.3666 31.221 90.1227 31.8325 88.6436L32.885 86.2577C32.9143 86.1946 33.0235 86.2071 33.2126 86.2951C33.4017 86.3831 33.4816 86.4586 33.4523 86.5216C32.9098 87.6878 32.6011 88.5985 32.5263 89.2539C32.4514 89.9092 32.5991 90.4571 32.9692 90.8977C33.3225 91.2921 33.9719 91.7092 34.9175 92.1491L44.6094 96.6581L52.6155 79.449L42.9236 74.94C41.978 74.5001 41.2333 74.2879 40.6894 74.3032C40.1286 74.2724 39.6217 74.4966 39.1687 74.976C38.7303 75.4238 38.2325 76.2466 37.6753 77.4443C37.6313 77.5388 37.5148 77.5421 37.3256 77.4542C37.1365 77.3662 37.064 77.2749 37.108 77.1804L38.189 74.9803C38.9265 73.5598 39.5373 72.3295 40.0211 71.2893C40.4317 70.4068 40.9281 69.2575 41.5102 67.8414L42.5847 65.4082C42.6287 65.3136 42.7452 65.3103 42.9343 65.3983C43.1234 65.4863 43.196 65.5776 43.152 65.6721C42.6095 66.8383 42.3081 67.7333 42.2479 68.3571C42.1563 68.9662 42.2797 69.4837 42.6183 69.9097C42.9716 70.3041 43.621 70.7212 44.5666 71.1611L66.4562 81.3447C67.4017 81.7846 68.1549 82.0199 68.7157 82.0508C69.2596 82.0354 69.7349 81.7965 70.1418 81.334C70.5487 80.8715 71.0234 80.0572 71.5659 78.891Z" fill="#FFF7BB"/>
<path d="M91.2977 35.124C96.5837 30.2931 101.15 29.9818 104.996 34.1901C106.332 35.6527 107.17 37.2652 107.509 39.0274C107.874 40.7662 107.722 42.5064 107.053 44.2479C106.384 45.9894 105.267 47.5754 103.702 49.006C103.06 49.5922 102.255 50.2573 101.287 51.0011C100.904 51.3038 100.406 51.7119 99.7924 52.2257C99.2044 52.7159 98.5383 53.3011 97.7942 53.9812L95.3274 56.3062C94.8377 56.8009 94.1694 57.4352 93.3226 58.2091C93.2456 58.2794 93.1368 58.2376 92.9961 58.0836C92.8554 57.9297 92.8235 57.8175 92.9005 57.7472C93.8265 56.8538 94.4478 56.1682 94.7646 55.6903C95.0579 55.1868 95.1174 54.6851 94.943 54.1851C94.7943 53.6617 94.3565 53.0023 93.6295 52.2068L77.3426 34.3856C76.6156 33.5901 76.0227 33.0959 75.5639 32.903C75.0816 32.6845 74.5765 32.6987 74.0487 32.9456C73.5209 33.1925 72.7705 33.737 71.7976 34.579C71.7463 34.6259 71.6503 34.5724 71.5096 34.4185C71.3689 34.2645 71.3242 34.1641 71.3755 34.1172L73.2582 32.4672C74.4342 31.4866 75.3686 30.6798 76.0614 30.0466C76.8313 29.343 77.7829 28.4262 78.9164 27.2961L80.8827 25.4285C80.9341 25.3816 81.0301 25.4351 81.1708 25.589C81.3115 25.743 81.3562 25.8434 81.3049 25.8903C80.3532 26.8072 79.7051 27.5408 79.3604 28.0912C79.0415 28.6182 78.968 29.1562 79.1402 29.7053C79.2889 30.2287 79.7267 30.8881 80.4537 31.6836L87.4539 39.3432C88.759 37.6796 90.0403 36.2732 91.2977 35.124ZM102.267 48.9045C104.243 47.0987 105.232 45.347 105.235 43.6494C105.239 41.9026 104.327 40.0284 102.498 38.0269C100.458 35.7945 98.5173 34.6245 96.6767 34.5171C94.8361 34.4097 92.9535 35.2354 91.029 36.9943C90.1052 37.8385 89.1598 38.891 88.1926 40.1515L96.6703 49.4278C97.4442 50.2746 98.2368 50.704 99.0483 50.7159C99.8597 50.7278 100.933 50.124 102.267 48.9045ZM117.109 30.7489C117.812 31.5187 118.417 32.0257 118.923 32.2699C119.405 32.4884 119.91 32.4742 120.438 32.2273C120.991 31.957 121.73 31.3996 122.654 30.5554C122.705 30.5085 122.801 30.562 122.942 30.716C123.083 30.87 123.127 30.9704 123.076 31.0173C122.255 31.7677 121.602 32.3412 121.116 32.7376L118.31 35.2319L115.651 37.7328C115.186 38.204 114.531 38.8266 113.684 39.6005C113.633 39.6474 113.537 39.5938 113.396 39.4399C113.255 39.2859 113.211 39.1855 113.262 39.1386C114.186 38.2943 114.807 37.6087 115.126 37.0817C115.445 36.5548 115.517 36.0413 115.343 35.5413C115.145 35.0157 114.695 34.368 113.991 33.5982L97.7042 15.777C97.0007 15.0072 96.4078 14.513 95.9255 14.2945C95.4432 14.0759 94.9253 14.1018 94.3718 14.3722C93.7949 14.6169 93.0445 15.1614 92.1208 16.0056C92.0694 16.0525 91.9734 15.999 91.8327 15.845C91.692 15.6911 91.6473 15.5906 91.6986 15.5437L93.7353 13.753C94.9113 12.7725 95.8329 11.9774 96.5 11.3676C97.2442 10.6875 98.1573 9.80591 99.2395 8.72273L101.09 6.96057C101.142 6.91367 101.238 6.9672 101.378 7.12116C101.519 7.27512 101.564 7.37556 101.512 7.42246C100.614 8.24325 100.018 8.92997 99.722 9.4826C99.4265 10.0352 99.3777 10.5744 99.5755 11.1C99.7498 11.5999 100.189 12.2348 100.892 13.0046L117.109 30.7489Z" fill="#FFF7BB"/>
</svg>
