<svg width="35" height="36" viewBox="0 0 35 36" fill="none" xmlns="http://www.w3.org/2000/svg">
<path d="M33.5621 20.5887C33.0733 20.4341 32.544 20.4818 32.0898 20.7215C31.6355 20.9612 31.2931 21.3735 31.1371 21.8683C30.2206 24.7121 28.4338 27.1849 26.0367 28.927C23.6397 30.6691 20.7574 31.5895 17.8092 31.5545C14.1627 31.5965 10.6486 30.1694 8.03739 27.586C5.42621 25.0026 3.93114 21.4738 3.88001 17.7734C3.93114 14.073 5.42621 10.5442 8.03739 7.96083C10.6486 5.37743 14.1627 3.95029 17.8092 3.99235C21.1025 3.98428 24.2945 5.14761 26.8303 7.28012L22.6205 6.57138C22.3681 6.52925 22.1101 6.53815 21.8612 6.59757C21.6123 6.65699 21.3775 6.76575 21.1701 6.91761C20.9628 7.06946 20.7871 7.26142 20.6531 7.48243C20.5191 7.70343 20.4295 7.94914 20.3894 8.20541C20.3479 8.46145 20.3567 8.72329 20.4153 8.97588C20.4738 9.22846 20.581 9.46681 20.7306 9.67722C20.8803 9.88762 21.0694 10.0659 21.2872 10.2019C21.505 10.3378 21.7471 10.4288 21.9996 10.4694L30.2253 11.8475H30.5551C30.78 11.8473 31.0032 11.8073 31.2147 11.7294C31.2857 11.7021 31.3514 11.6621 31.4087 11.6113C31.5478 11.5588 31.6785 11.4858 31.7967 11.3947L31.9713 11.1782C31.9713 11.0797 32.1459 11.001 32.2235 10.8829C32.3011 10.7648 32.2235 10.686 32.3205 10.6073C32.3741 10.4926 32.4195 10.3742 32.4563 10.2529L33.9113 2.378C33.9597 2.11946 33.9574 1.85378 33.9047 1.59613C33.8519 1.33847 33.7496 1.09389 33.6037 0.876344C33.4578 0.658797 33.2711 0.472546 33.0542 0.328226C32.8374 0.183906 32.5946 0.0843423 32.3399 0.0352204C32.0851 -0.0139015 31.8233 -0.0116199 31.5694 0.0419349C31.3155 0.0954897 31.0745 0.199269 30.8601 0.347347C30.4272 0.646405 30.129 1.10775 30.0313 1.62988L29.5075 4.48453C26.2599 1.62839 22.1067 0.0557557 17.8092 0.0549076C13.1337 0.0129094 8.6327 1.8549 5.29389 5.1767C1.95509 8.49849 0.0511984 13.0288 0 17.7734C0.0511984 22.5181 1.95509 27.0483 5.29389 30.3701C8.6327 33.6919 13.1337 35.5339 17.8092 35.4919C21.5983 35.551 25.306 34.3739 28.3864 32.134C31.4668 29.8941 33.7571 26.7096 34.9201 23.0496C34.9937 22.7975 35.0168 22.5331 34.988 22.2718C34.9593 22.0105 34.8792 21.7578 34.7527 21.5284C34.6261 21.299 34.4555 21.0977 34.251 20.9363C34.0466 20.7749 33.8123 20.6567 33.5621 20.5887Z" fill="#FFF7BB"/>
</svg>
