<svg width="83" height="58" viewBox="0 0 83 58" fill="none" xmlns="http://www.w3.org/2000/svg">
<path d="M57.5621 20.5887C57.0733 20.4341 56.544 20.4818 56.0898 20.7215C55.6355 20.9612 55.2931 21.3735 55.1371 21.8683C54.2206 24.7121 52.4338 27.1849 50.0367 28.927C47.6397 30.6691 44.7574 31.5895 41.8092 31.5545C38.1627 31.5965 34.6486 30.1694 32.0374 27.586C29.4262 25.0026 27.9311 21.4738 27.88 17.7734C27.9311 14.073 29.4262 10.5442 32.0374 7.96083C34.6486 5.37743 38.1627 3.95029 41.8092 3.99235C45.1025 3.98428 48.2945 5.14761 50.8303 7.28012L46.6205 6.57138C46.3681 6.52925 46.1101 6.53815 45.8612 6.59757C45.6123 6.65699 45.3775 6.76575 45.1701 6.91761C44.9628 7.06946 44.7871 7.26142 44.6531 7.48243C44.5191 7.70343 44.4295 7.94914 44.3894 8.20541C44.3479 8.46145 44.3567 8.72329 44.4153 8.97588C44.4738 9.22846 44.581 9.46681 44.7306 9.67722C44.8803 9.88762 45.0694 10.0659 45.2872 10.2019C45.505 10.3378 45.7471 10.4288 45.9996 10.4694L54.2253 11.8475H54.5551C54.78 11.8473 55.0032 11.8073 55.2147 11.7294C55.2857 11.7021 55.3514 11.6621 55.4087 11.6113C55.5478 11.5588 55.6785 11.4858 55.7967 11.3947L55.9713 11.1782C55.9713 11.0797 56.1459 11.001 56.2235 10.8829C56.3011 10.7648 56.2235 10.686 56.3205 10.6073C56.3741 10.4926 56.4195 10.3742 56.4563 10.2529L57.9113 2.378C57.9597 2.11946 57.9574 1.85378 57.9047 1.59613C57.8519 1.33847 57.7496 1.09389 57.6037 0.876344C57.4578 0.658797 57.2711 0.472546 57.0542 0.328226C56.8374 0.183906 56.5946 0.0843423 56.3399 0.0352204C56.0851 -0.0139015 55.8233 -0.0116199 55.5694 0.0419349C55.3155 0.0954897 55.0745 0.199269 54.8601 0.347347C54.4272 0.646405 54.129 1.10775 54.0313 1.62988L53.5075 4.48453C50.2599 1.62839 46.1067 0.0557557 41.8092 0.0549076C37.1337 0.0129094 32.6327 1.8549 29.2939 5.1767C25.9551 8.49849 24.0512 13.0288 24 17.7734C24.0512 22.5181 25.9551 27.0483 29.2939 30.3701C32.6327 33.6919 37.1337 35.5339 41.8092 35.4919C45.5983 35.551 49.306 34.3739 52.3864 32.134C55.4668 29.8941 57.7571 26.7096 58.9201 23.0496C58.9937 22.7975 59.0168 22.5331 58.988 22.2718C58.9593 22.0105 58.8792 21.7578 58.7527 21.5284C58.6261 21.299 58.4555 21.0977 58.251 20.9363C58.0466 20.7749 57.8123 20.6567 57.5621 20.5887Z" fill="white"/>
<path d="M18.0295 42.582C18.7287 41.7969 19.6779 41.4043 20.8771 41.4043C22.0763 41.4043 23.0255 41.7969 23.7248 42.582C24.424 43.3672 24.7736 44.4316 24.7736 45.7754C24.7736 47.1191 24.424 48.1836 23.7248 48.9688C23.0255 49.75 22.0763 50.1406 20.8771 50.1406C19.6779 50.1406 18.7287 49.75 18.0295 48.9688C17.3302 48.1836 16.9806 47.1191 16.9806 45.7754C16.9806 44.4316 17.3302 43.3672 18.0295 42.582ZM22.9279 43.2969C22.424 42.6836 21.7404 42.377 20.8771 42.377C20.0138 42.377 19.3283 42.6836 18.8205 43.2969C18.3166 43.9062 18.0646 44.7324 18.0646 45.7754C18.0646 46.8145 18.3166 47.6406 18.8205 48.2539C19.3283 48.8633 20.0138 49.168 20.8771 49.168C21.7404 49.168 22.424 48.8633 22.9279 48.2539C23.4357 47.6406 23.6896 46.8145 23.6896 45.7754C23.6896 44.7324 23.4357 43.9062 22.9279 43.2969ZM28.4125 50.1055C27.475 50.1055 26.7641 49.7949 26.2797 49.1738C25.7992 48.5527 25.559 47.6387 25.559 46.4316C25.559 44.7402 25.807 43.5195 26.3031 42.7695C26.8031 42.0195 27.641 41.623 28.8168 41.5801L29.268 41.5625C29.9789 41.5273 30.5082 41.418 30.8559 41.2344V42.125C30.7582 42.2148 30.5648 42.293 30.2758 42.3594C29.9867 42.4258 29.6664 42.4668 29.3148 42.4824L28.8637 42.5C28.4379 42.5156 28.0824 42.5742 27.7973 42.6758C27.516 42.7773 27.2816 42.9395 27.0941 43.1621C26.9105 43.3848 26.768 43.6504 26.6664 43.959C26.5648 44.2637 26.4828 44.6543 26.4203 45.1309H26.4672C26.6625 44.7754 26.9418 44.5039 27.3051 44.3164C27.6723 44.1289 28.0922 44.0352 28.5648 44.0352C29.3891 44.0352 30.0434 44.3047 30.5277 44.8438C31.016 45.3789 31.2602 46.1016 31.2602 47.0117C31.2602 47.9688 31.0063 48.7246 30.4984 49.2793C29.9906 49.8301 29.2953 50.1055 28.4125 50.1055ZM27.0766 48.6348C27.393 49.0137 27.8383 49.2031 28.4125 49.2031C28.9867 49.2031 29.4301 49.0137 29.7426 48.6348C30.059 48.252 30.2172 47.7109 30.2172 47.0117C30.2172 46.3477 30.059 45.834 29.7426 45.4707C29.4301 45.1074 28.9867 44.9258 28.4125 44.9258C27.8383 44.9258 27.393 45.1074 27.0766 45.4707C26.7602 45.834 26.602 46.3477 26.602 47.0117C26.602 47.7109 26.7602 48.252 27.0766 48.6348ZM36.1705 50V47.2578H33.1647V50H32.1569V43.9062H33.1647V46.4199H36.1705V43.9062H37.1784V50H36.1705ZM40.9052 50.1055C40.0536 50.1055 39.37 49.8223 38.8544 49.2559C38.3388 48.6855 38.0809 47.918 38.0809 46.9531C38.0809 45.9883 38.3388 45.2227 38.8544 44.6562C39.37 44.0859 40.0536 43.8008 40.9052 43.8008C41.7528 43.8008 42.4345 44.0859 42.9501 44.6562C43.4657 45.2227 43.7235 45.9883 43.7235 46.9531C43.7235 47.9141 43.4657 48.6797 42.9501 49.25C42.4345 49.8203 41.7528 50.1055 40.9052 50.1055ZM39.5985 48.6113C39.9227 49.0098 40.3583 49.209 40.9052 49.209C41.452 49.209 41.8856 49.0117 42.2059 48.6172C42.5263 48.2188 42.6864 47.6641 42.6864 46.9531C42.6864 46.2422 42.5263 45.6895 42.2059 45.2949C41.8856 44.8965 41.452 44.6973 40.9052 44.6973C40.3583 44.6973 39.9227 44.8965 39.5985 45.2949C39.2782 45.6934 39.118 46.2461 39.118 46.9531C39.118 47.6602 39.2782 48.2129 39.5985 48.6113ZM47.0812 44.7324H45.6222V46.4375H46.9288C47.6866 46.4375 48.0655 46.1484 48.0655 45.5703C48.0655 45.3008 47.9816 45.0938 47.8136 44.9492C47.6456 44.8047 47.4015 44.7324 47.0812 44.7324ZM47.0109 47.2578H45.6222V49.1738H47.1925C47.5597 49.1738 47.8409 49.0938 48.0363 48.9336C48.2316 48.7695 48.3292 48.5332 48.3292 48.2246C48.3292 47.5801 47.8898 47.2578 47.0109 47.2578ZM44.6144 50V43.9062H47.2218C47.7921 43.9062 48.2413 44.0449 48.5695 44.3223C48.8976 44.5996 49.0616 44.9805 49.0616 45.4648C49.0616 45.7734 48.964 46.0547 48.7687 46.3086C48.5773 46.5625 48.3409 46.7188 48.0597 46.7773V46.8242C48.4425 46.8789 48.7491 47.0352 48.9796 47.293C49.214 47.5508 49.3312 47.8691 49.3312 48.248C49.3312 48.7871 49.1437 49.2148 48.7687 49.5312C48.3976 49.8438 47.8878 50 47.2394 50H44.6144ZM51.265 50H50.2572V43.9062H51.265V48.4414H51.3119L54.3587 43.9062H55.3666V50H54.3587V45.4648H54.3119L51.265 50ZM61.0152 43.9062V44.7441H59.0465V50H58.0387V44.7441H56.0699V43.9062H61.0152ZM63.8631 46.6895H62.7264V49.1621H63.8631C64.2577 49.1621 64.5721 49.0488 64.8065 48.8223C65.0448 48.5957 65.1639 48.2969 65.1639 47.9258C65.1639 47.5508 65.0448 47.252 64.8065 47.0293C64.5721 46.8027 64.2577 46.6895 63.8631 46.6895ZM61.7186 50V43.9062H62.7264V45.8516H63.8807C64.5799 45.8516 65.1366 46.0391 65.5506 46.4141C65.9647 46.7891 66.1717 47.293 66.1717 47.9258C66.1717 48.5586 65.9647 49.0625 65.5506 49.4375C65.1366 49.8125 64.5799 50 63.8807 50H61.7186Z" fill="white"/>
</svg>
