<svg width="83" height="55" viewBox="0 0 83 55" fill="none" xmlns="http://www.w3.org/2000/svg">
<path d="M41.9034 4.86162C35.9829 -4.37658 24 0.656091 24 10.7196C24 18.2765 40.4279 30.0976 41.9034 31.6346C43.3891 30.0976 59 18.2765 59 10.7196C59 0.732386 47.835 -4.37658 41.9034 4.86162Z" fill="#FFF7BB"/>
<path d="M18.1963 47.1406C17.0284 47.1406 16.1006 46.748 15.4131 45.9629C14.7295 45.1738 14.3877 44.1094 14.3877 42.7695C14.3877 41.4414 14.7334 40.3828 15.4248 39.5938C16.1162 38.8008 17.0401 38.4043 18.1963 38.4043C19.0948 38.4043 19.8604 38.6504 20.4932 39.1426C21.1299 39.6309 21.5264 40.2812 21.6827 41.0938H20.6045C20.4522 40.5703 20.1573 40.1543 19.7198 39.8457C19.2823 39.5332 18.7745 39.377 18.1963 39.377C17.3721 39.377 16.712 39.6855 16.2159 40.3027C15.7198 40.9199 15.4717 41.7422 15.4717 42.7695C15.4717 43.8086 15.7178 44.6348 16.21 45.248C16.7022 45.8613 17.3662 46.168 18.2022 46.168C18.7998 46.168 19.3077 46.0352 19.7256 45.7695C20.1436 45.5039 20.4366 45.1289 20.6045 44.6445H21.6827C21.4756 45.4492 21.0713 46.0664 20.4698 46.4961C19.8682 46.9258 19.1104 47.1406 18.1963 47.1406ZM25.1751 47.1055C24.3235 47.1055 23.6399 46.8223 23.1243 46.2559C22.6087 45.6855 22.3509 44.918 22.3509 43.9531C22.3509 42.9883 22.6087 42.2227 23.1243 41.6562C23.6399 41.0859 24.3235 40.8008 25.1751 40.8008C26.0227 40.8008 26.7044 41.0859 27.22 41.6562C27.7356 42.2227 27.9934 42.9883 27.9934 43.9531C27.9934 44.9141 27.7356 45.6797 27.22 46.25C26.7044 46.8203 26.0227 47.1055 25.1751 47.1055ZM23.8684 45.6113C24.1927 46.0098 24.6282 46.209 25.1751 46.209C25.722 46.209 26.1555 46.0117 26.4759 45.6172C26.7962 45.2188 26.9563 44.6641 26.9563 43.9531C26.9563 43.2422 26.7962 42.6895 26.4759 42.2949C26.1555 41.8965 25.722 41.6973 25.1751 41.6973C24.6282 41.6973 24.1927 41.8965 23.8684 42.2949C23.5481 42.6934 23.388 43.2461 23.388 43.9531C23.388 44.6602 23.5481 45.2129 23.8684 45.6113ZM30.9292 44.6797H30.9058L29.4351 47H28.3042L30.3784 43.9531L28.3394 40.9062H29.4761L30.9409 43.1914H30.9644L32.4116 40.9062H33.5484L31.4917 43.9121L33.5191 47H32.3882L30.9292 44.6797ZM37.2341 40.8008C38.0154 40.8008 38.6443 41.0879 39.1209 41.6621C39.6013 42.2363 39.8416 43 39.8416 43.9531C39.8416 44.9023 39.6033 45.666 39.1267 46.2441C38.6502 46.8184 38.0271 47.1055 37.2576 47.1055C36.8279 47.1055 36.4431 47.0078 36.1033 46.8125C35.7634 46.6172 35.5017 46.3496 35.3181 46.0098H35.2947V49.0332H34.2752V40.9062H35.242V41.9375H35.2654C35.4568 41.5859 35.7244 41.3086 36.0681 41.1055C36.4119 40.9023 36.8005 40.8008 37.2341 40.8008ZM37.0349 46.209C37.5779 46.209 38.0076 46.0059 38.324 45.5996C38.6404 45.1934 38.7986 44.6445 38.7986 43.9531C38.7986 43.2617 38.6404 42.7129 38.324 42.3066C38.0076 41.9004 37.5779 41.6973 37.0349 41.6973C36.5115 41.6973 36.0896 41.9043 35.7693 42.3184C35.449 42.7324 35.2888 43.2773 35.2888 43.9531C35.2888 44.6328 35.449 45.1797 35.7693 45.5938C36.0896 46.0039 36.5115 46.209 37.0349 46.209ZM42.748 46.2383C43.2285 46.2383 43.6309 46.0898 43.9551 45.793C44.2832 45.4922 44.4473 45.123 44.4473 44.6855V44.1875L42.8184 44.2871C42.4082 44.3145 42.0898 44.4141 41.8633 44.5859C41.6406 44.7578 41.5293 44.9883 41.5293 45.2773C41.5293 45.5664 41.6406 45.7988 41.8633 45.9746C42.0859 46.1504 42.3809 46.2383 42.748 46.2383ZM42.5195 47.1055C41.9141 47.1055 41.4238 46.9375 41.0488 46.6016C40.6777 46.2656 40.4922 45.8242 40.4922 45.2773C40.4922 44.7539 40.6836 44.3359 41.0664 44.0234C41.4531 43.7109 41.998 43.5352 42.7012 43.4961L44.4473 43.3965V42.8867C44.4473 42.5156 44.3301 42.2246 44.0957 42.0137C43.8613 41.8027 43.5332 41.6973 43.1113 41.6973C42.7246 41.6973 42.4102 41.7832 42.168 41.9551C41.9258 42.123 41.7715 42.3594 41.7051 42.6641H40.7207C40.7559 42.1211 40.9902 41.6758 41.4238 41.3281C41.8613 40.9766 42.4316 40.8008 43.1348 40.8008C43.8496 40.8008 44.416 40.9805 44.834 41.3398C45.2559 41.6992 45.4668 42.1816 45.4668 42.7871V47H44.5V45.9512H44.4766C44.293 46.2988 44.0234 46.5781 43.668 46.7891C43.3125 47 42.9297 47.1055 42.5195 47.1055ZM50.6467 47V44.2578H47.6409V47H46.633V40.9062H47.6409V43.4199H50.6467V40.9062H51.6545V47H50.6467ZM53.8579 47H52.8501V40.9062H53.8579V45.4414H53.9048L56.9516 40.9062H57.9595V47H56.9516V42.4648H56.9048L53.8579 47ZM63.6081 40.9062V41.7441H61.6394V47H60.6316V41.7441H58.6628V40.9062H63.6081ZM66.456 43.6895H65.3193V46.1621H66.456C66.8505 46.1621 67.165 46.0488 67.3994 45.8223C67.6377 45.5957 67.7568 45.2969 67.7568 44.9258C67.7568 44.5508 67.6377 44.252 67.3994 44.0293C67.165 43.8027 66.8505 43.6895 66.456 43.6895ZM64.3115 47V40.9062H65.3193V42.8516H66.4736C67.1728 42.8516 67.7295 43.0391 68.1435 43.4141C68.5576 43.7891 68.7646 44.293 68.7646 44.9258C68.7646 45.5586 68.5576 46.0625 68.1435 46.4375C67.7295 46.8125 67.1728 47 66.4736 47H64.3115Z" fill="#FFF7BB"/>
</svg>
