<svg width="376" height="464" viewBox="0 0 376 464" fill="none" xmlns="http://www.w3.org/2000/svg">
<path d="M139.072 87.1815C139.139 87.1791 139.176 87.2779 139.183 87.4782C139.191 87.6784 139.161 87.7797 139.094 87.7821L132.337 88.0277C131.87 88.0446 131.465 87.9424 131.123 87.7209C130.779 87.4661 130.171 86.8033 129.296 85.7324C128.422 84.6615 126.914 82.7115 124.773 79.8824L124.142 79.0533C122.633 77.0699 121.53 75.6899 120.834 74.9133C120.136 74.1034 119.414 73.5449 118.668 73.2379C117.955 72.9296 117.015 72.7967 115.847 72.8392L115.396 72.8555L115.822 84.5681C115.858 85.5692 115.986 86.3163 116.204 86.8096C116.421 87.2695 116.817 87.5726 117.39 87.7188C117.997 87.8638 118.917 87.9139 120.152 87.869C120.219 87.8666 120.256 87.9655 120.263 88.1657C120.27 88.3659 120.241 88.4672 120.174 88.4697C119.073 88.5097 118.204 88.5245 117.569 88.5142L113.813 88.6005L110.311 88.7779C109.712 88.8331 108.862 88.8807 107.76 88.9207C107.694 88.9232 107.657 88.8243 107.649 88.6241C107.642 88.4238 107.672 88.3225 107.739 88.3201C108.973 88.2752 109.871 88.1591 110.432 87.9716C110.994 87.7841 111.366 87.4532 111.549 86.9788C111.765 86.4697 111.854 85.7147 111.818 84.7136L110.976 61.5388C110.939 60.5377 110.812 59.8072 110.595 59.3473C110.378 58.8874 109.983 58.5844 109.409 58.4381C108.835 58.2585 107.93 58.1912 106.696 58.236C106.629 58.2385 106.592 58.1396 106.585 57.9394C106.577 57.7391 106.607 57.6378 106.674 57.6354L109.228 57.5927C110.632 57.6085 111.785 57.6 112.686 57.5673C113.687 57.5309 114.954 57.4515 116.486 57.329L119.037 57.1861C119.104 57.1837 119.141 57.2826 119.148 57.4828C119.155 57.683 119.126 57.7844 119.059 57.7868C117.858 57.8304 116.96 57.9633 116.367 58.1853C115.807 58.4062 115.419 58.7711 115.204 59.2801C115.02 59.7545 114.947 60.4923 114.983 61.4934L115.367 72.0547C117.167 71.9225 118.283 71.8485 118.717 71.8327L119.368 71.8091L124.881 63.5394C126.245 61.5185 126.908 60.0075 126.872 59.0065C126.835 58.0054 126.033 57.5334 124.465 57.5903C124.398 57.5928 124.361 57.4939 124.354 57.2937C124.346 57.0934 124.376 56.9921 124.443 56.9897L126.647 56.9597C127.984 56.978 129.203 56.9671 130.304 56.9271C131.506 56.8834 132.739 56.8052 134.005 56.6923L135.905 56.5732C136.005 56.5695 136.059 56.6678 136.066 56.868C136.073 57.0683 136.027 57.1702 135.927 57.1738C134.292 57.2332 132.74 57.7574 131.273 58.7463C129.805 59.7352 128.371 61.1907 126.971 63.1127L120.573 71.8655C121.578 71.9293 122.422 72.1826 123.106 72.6255C123.823 73.0338 124.53 73.643 125.228 74.453C125.924 75.2296 127.079 76.6578 128.691 78.7376C130.375 80.9485 131.705 82.6043 132.681 83.7049C133.656 84.8055 134.657 85.6713 135.682 86.3023C136.706 86.8999 137.836 87.193 139.072 87.1815Z" fill="#FCF7B7"/>
<path d="M183.376 102.168C180.451 101.125 178.082 99.518 176.268 97.3469C174.497 95.1555 173.397 92.6718 172.969 89.8958C172.584 87.0996 172.885 84.3176 173.872 81.5499C175.027 78.3104 176.831 75.8343 179.286 74.1215C181.751 72.3773 184.465 71.3776 187.428 71.1223C190.421 70.8783 193.255 71.2329 195.929 72.1862C198.916 73.2517 201.29 74.8958 203.05 77.1186C204.821 79.31 205.895 81.7667 206.271 84.4888C206.679 87.2222 206.423 89.8783 205.504 92.4573C204.483 95.3194 202.792 97.6764 200.43 99.5284C198.068 101.38 195.366 102.544 192.325 103.019C189.315 103.506 186.332 103.222 183.376 102.168ZM185.397 101.719C187.41 102.437 189.404 102.563 191.378 102.097C193.352 101.631 195.148 100.57 196.767 98.9136C198.428 97.2372 199.752 95.0151 200.739 92.2474C201.782 89.3224 202.194 86.5269 201.975 83.8609C201.787 81.2061 200.964 78.8918 199.506 76.9182C198.078 74.9558 196.107 73.5259 193.591 72.6287C190.32 71.4623 187.374 71.6704 184.753 73.253C182.144 74.8041 180.144 77.5296 178.754 81.4296C177.688 84.4174 177.242 87.3073 177.417 90.0992C177.591 92.891 178.359 95.3097 179.722 97.3553C181.115 99.4121 183.007 100.867 185.397 101.719Z" fill="#FCF7B7"/>
<path d="M223.262 127.29C222.664 126.757 222.313 126.197 222.209 125.612C222.083 125.051 222.242 124.522 222.687 124.024C223.51 123.102 224.482 123.142 225.603 124.143L226.387 124.843C227.782 126.089 229.767 126.272 232.342 125.393C234.942 124.537 237.67 123.011 240.526 120.816C243.406 118.642 245.981 116.286 248.249 113.745C249.317 112.55 249.835 111.468 249.804 110.5C249.82 109.53 249.093 108.388 247.624 107.076C247.549 107.009 247.578 106.901 247.712 106.752C247.845 106.602 247.949 106.561 248.024 106.628L266.219 122.874C266.268 122.919 266.227 123.016 266.093 123.165C265.96 123.314 265.868 123.367 265.818 123.322C264.897 122.5 264.145 121.963 263.563 121.712C263.029 121.458 262.518 121.428 262.033 121.621C261.572 121.836 261.008 122.317 260.341 123.065L244.895 140.362C244.228 141.11 243.802 141.737 243.618 142.244C243.481 142.748 243.569 143.252 243.881 143.754C244.218 144.279 244.847 144.953 245.769 145.776C245.819 145.82 245.777 145.917 245.643 146.067C245.51 146.216 245.418 146.269 245.369 146.224C244.572 145.513 243.948 144.933 243.497 144.486L240.877 142.08L238.079 139.648C237.609 139.273 236.95 138.707 236.103 137.951C236.053 137.907 236.095 137.81 236.229 137.66C236.362 137.511 236.454 137.458 236.504 137.503C237.45 138.348 238.191 138.897 238.725 139.151C239.26 139.404 239.758 139.423 240.218 139.208C240.679 138.993 241.254 138.499 241.944 137.727L257.156 120.691C257.912 119.844 258.363 119.239 258.508 118.876C258.677 118.535 258.634 118.183 258.377 117.819C258.145 117.478 257.555 116.884 256.609 116.039L254.554 114.204C253.807 113.537 253.191 113.099 252.706 112.89C252.221 112.681 251.714 112.698 251.184 112.941C250.653 113.184 249.999 113.741 249.221 114.613C246.93 117.178 244.168 119.77 240.934 122.389C237.725 125.03 234.477 126.964 231.188 128.19C227.921 129.392 225.279 129.092 223.262 127.29Z" fill="#FCF7B7"/>
<path d="M262.226 176.308C261.88 175.585 261.771 174.934 261.9 174.353C261.998 173.787 262.349 173.36 262.951 173.071C264.065 172.537 264.947 172.947 265.597 174.302L266.052 175.25C266.861 176.936 268.623 177.868 271.338 178.047C274.068 178.256 277.172 177.896 280.653 176.967C284.147 176.068 287.43 174.882 290.501 173.409C291.946 172.716 292.84 171.917 293.183 171.011C293.571 170.121 293.339 168.788 292.487 167.012C292.444 166.922 292.512 166.833 292.693 166.747C292.873 166.66 292.985 166.662 293.029 166.752L303.579 188.744C303.608 188.805 303.532 188.878 303.352 188.965C303.171 189.051 303.066 189.065 303.038 189.004C302.503 187.891 302.016 187.106 301.575 186.651C301.179 186.211 300.72 185.987 300.197 185.979C299.689 186 298.983 186.228 298.08 186.661L277.172 196.692C276.268 197.125 275.634 197.54 275.269 197.937C274.949 198.35 274.836 198.849 274.931 199.433C275.041 200.047 275.363 200.911 275.897 202.025C275.926 202.085 275.85 202.159 275.669 202.245C275.489 202.332 275.384 202.345 275.355 202.285C274.893 201.321 274.54 200.547 274.295 199.96L272.802 196.732L271.154 193.412C270.864 192.885 270.473 192.109 269.982 191.085C269.953 191.025 270.029 190.952 270.21 190.865C270.391 190.779 270.495 190.765 270.524 190.826C271.073 191.97 271.546 192.761 271.942 193.201C272.338 193.641 272.79 193.85 273.298 193.828C273.806 193.806 274.527 193.572 275.46 193.124L296.052 183.245C297.076 182.754 297.725 182.369 297.998 182.089C298.286 181.84 298.381 181.498 298.284 181.064C298.201 180.659 297.885 179.885 297.336 178.741L296.144 176.257C295.711 175.354 295.311 174.712 294.944 174.333C294.576 173.954 294.101 173.774 293.519 173.794C292.936 173.815 292.118 174.078 291.064 174.583C287.963 176.071 284.417 177.402 280.425 178.576C276.447 179.781 272.705 180.317 269.197 180.185C265.72 180.039 263.396 178.746 262.226 176.308Z" fill="#FCF7B7"/>
<path d="M288.926 257.961C288.993 257.958 289.03 258.023 289.037 258.156C289.043 258.256 289.014 258.341 288.951 258.412C288.923 258.513 288.893 258.565 288.859 258.567C286.44 258.367 284.181 258.325 282.08 258.441C281.814 258.456 281.611 258.417 281.472 258.324C281.366 258.23 281.305 258.032 281.289 257.732L280.109 236.428C280.104 236.328 280.201 236.272 280.401 236.261C280.601 236.25 280.704 236.295 280.709 236.395C280.776 237.595 280.907 238.457 281.103 238.981C281.299 239.506 281.636 239.855 282.114 240.029C282.625 240.201 283.381 240.26 284.381 240.204L307.536 238.922C308.536 238.867 309.264 238.726 309.72 238.501C310.176 238.275 310.471 237.874 310.606 237.298C310.777 236.753 310.83 235.898 310.765 234.731C310.76 234.631 310.857 234.575 311.057 234.564C311.257 234.553 311.36 234.597 311.365 234.697L312.495 255.102C312.513 255.435 312.373 255.61 312.073 255.627L305.777 256.075C305.677 256.081 305.605 255.985 305.56 255.786C305.551 255.62 305.595 255.517 305.694 255.478C307.514 255.143 308.862 254.416 309.737 253.298C310.644 252.177 311.05 250.75 310.954 249.017L310.813 246.466C310.732 244.999 310.461 244.028 310 243.552C309.572 243.074 308.758 242.868 307.558 242.934L297.405 243.496L297.71 248.998C297.804 250.698 298.157 251.932 298.768 252.701C299.412 253.468 300.351 253.817 301.585 253.749C301.652 253.745 301.69 253.827 301.699 253.994C301.71 254.194 301.682 254.296 301.615 254.299L297.412 254.482L295.164 254.656C294.101 254.782 293.269 254.862 292.669 254.895C292.602 254.899 292.564 254.8 292.552 254.6C292.541 254.4 292.569 254.298 292.636 254.295C294.069 254.215 295.097 253.741 295.717 252.87C296.373 252.031 296.651 250.712 296.551 248.911L296.255 243.56L284.803 244.194C283.603 244.261 282.798 244.523 282.388 244.98C281.981 245.471 281.815 246.4 281.891 247.767L282.071 251.017C282.176 252.918 282.813 254.454 283.981 255.627C285.185 256.831 286.833 257.609 288.926 257.961Z" fill="#FCF7B7"/>
<path d="M265.695 323.513C265.674 323.577 265.569 323.578 265.378 323.517C265.187 323.456 265.102 323.393 265.122 323.33L267.183 316.89C267.325 316.444 267.558 316.098 267.883 315.852C268.239 315.615 269.069 315.267 270.373 314.808C271.677 314.348 274.023 313.591 277.41 312.537L278.404 312.224C280.782 311.477 282.454 310.908 283.421 310.516C284.419 310.134 285.19 309.644 285.731 309.046C286.263 308.48 286.707 307.641 287.063 306.528L287.201 306.098L276.038 302.527C275.084 302.221 274.338 302.088 273.799 302.126C273.293 302.174 272.874 302.443 272.542 302.933C272.2 303.455 271.841 304.304 271.464 305.481C271.444 305.544 271.338 305.546 271.147 305.485C270.956 305.423 270.871 305.361 270.892 305.298C271.227 304.248 271.508 303.426 271.733 302.832L272.925 299.27L273.946 295.915C274.097 295.332 274.341 294.516 274.677 293.467C274.697 293.403 274.803 293.402 274.994 293.463C275.184 293.524 275.27 293.586 275.249 293.65C274.873 294.827 274.678 295.711 274.664 296.302C274.65 296.894 274.835 297.356 275.219 297.69C275.625 298.065 276.305 298.405 277.259 298.71L299.346 305.777C300.3 306.082 301.03 306.211 301.536 306.162C302.043 306.114 302.462 305.845 302.794 305.355C303.158 304.876 303.528 304.048 303.904 302.871C303.925 302.807 304.03 302.806 304.221 302.867C304.412 302.928 304.497 302.99 304.477 303.054L303.651 305.472C303.16 306.787 302.777 307.874 302.502 308.733C302.197 309.687 301.842 310.905 301.438 312.389L300.707 314.837C300.686 314.901 300.581 314.902 300.39 314.841C300.199 314.78 300.114 314.717 300.134 314.654C300.501 313.509 300.68 312.62 300.672 311.986C300.655 311.384 300.443 310.896 300.037 310.521C299.653 310.187 298.984 309.868 298.029 309.563L287.964 306.342C287.478 308.08 287.169 309.156 287.037 309.569L286.838 310.189L292.748 318.18C294.187 320.148 295.383 321.285 296.337 321.59C297.292 321.895 298.008 321.301 298.486 319.806C298.506 319.742 298.612 319.741 298.803 319.802C298.994 319.863 299.079 319.925 299.058 319.989L298.339 322.073C297.869 323.325 297.465 324.475 297.13 325.525C296.763 326.67 296.419 327.856 296.095 329.085L295.563 330.913C295.533 331.009 295.422 331.026 295.231 330.965C295.04 330.904 294.96 330.826 294.991 330.73C295.489 329.172 295.522 327.535 295.09 325.819C294.657 324.103 293.774 322.26 292.441 320.291L286.376 311.304C285.976 312.227 285.451 312.936 284.802 313.429C284.175 313.965 283.362 314.424 282.364 314.805C281.397 315.197 279.662 315.799 277.158 316.611C274.507 317.445 272.499 318.135 271.133 318.679C269.766 319.224 268.613 319.871 267.671 320.622C266.762 321.383 266.103 322.346 265.695 323.513Z" fill="#FCF7B7"/>
<path d="M219.935 366.636C222.462 368.715 224.698 369.755 226.643 369.756C228.541 369.761 230.339 368.733 232.036 366.67L247.662 347.68C247.704 347.628 247.803 347.666 247.958 347.793C248.112 347.92 248.169 348.01 248.126 348.062C247.341 349.016 246.833 349.765 246.601 350.309C246.348 350.879 246.338 351.39 246.572 351.842C246.81 352.341 247.316 352.908 248.09 353.545L265.997 368.28C266.771 368.916 267.412 369.293 267.922 369.409C268.41 369.551 268.91 369.444 269.42 369.085C269.936 368.774 270.586 368.142 271.371 367.188C271.413 367.136 271.512 367.174 271.667 367.301C271.821 367.429 271.877 367.518 271.835 367.57L270.142 369.549C269.156 370.641 268.388 371.522 267.836 372.193C267.2 372.966 266.42 373.967 265.495 375.196L263.847 377.278C263.805 377.329 263.706 377.291 263.551 377.164C263.397 377.037 263.341 376.947 263.383 376.896C264.189 375.916 264.706 375.13 264.933 374.539C265.186 373.969 265.196 373.458 264.962 373.006C264.728 372.554 264.225 372.01 263.451 371.374L245.621 356.703C244.745 355.981 244.133 355.543 243.785 355.387C243.417 355.256 243.067 355.314 242.735 355.56C242.403 355.806 241.834 356.418 241.027 357.398L235.076 364.631C234.228 365.662 233.704 366.377 233.506 366.776C233.286 367.201 233.286 367.568 233.506 367.879C233.705 368.216 234.243 368.745 235.119 369.466L252.949 384.137C253.723 384.773 254.354 385.163 254.842 385.305C255.33 385.448 255.83 385.34 256.341 384.982C256.856 384.671 257.527 384.012 258.355 383.007C258.418 382.929 258.528 382.954 258.682 383.082C258.837 383.209 258.883 383.311 258.819 383.389L257.125 385.368C256.055 386.563 255.213 387.535 254.598 388.282C254.004 389.004 253.287 389.928 252.447 391.053L250.863 393.058C250.799 393.135 250.69 393.11 250.535 392.983C250.381 392.856 250.335 392.753 250.399 392.676C251.184 391.722 251.69 390.949 251.917 390.358C252.149 389.813 252.158 389.302 251.946 388.825C251.712 388.373 251.209 387.829 250.435 387.192L232.528 372.458C231.574 371.673 230.897 371.181 230.498 370.983C230.104 370.831 229.718 370.881 229.339 371.131C228.964 371.428 228.363 372.08 227.536 373.085C227.366 373.292 227.245 373.386 227.172 373.37C227.078 373.379 226.928 373.299 226.722 373.129L225.484 372.111C224.186 370.956 222.209 369.286 219.553 367.1C219.424 366.994 219.423 366.864 219.55 366.709C219.678 366.555 219.806 366.53 219.935 366.636Z" fill="#FCF7B7"/>
<path d="M170.292 405.979C170.233 406.01 170.156 405.937 170.063 405.76C169.969 405.583 169.952 405.479 170.011 405.448C170.986 404.933 171.761 404.543 172.338 404.276L175.551 402.637L178.983 400.77C179.498 400.46 180.199 400.071 181.085 399.603C181.174 399.556 181.265 399.622 181.359 399.799C181.452 399.976 181.454 400.088 181.366 400.135C180.244 400.727 179.456 401.237 179.002 401.665C178.549 402.094 178.342 402.561 178.383 403.068C178.44 403.605 178.702 404.316 179.169 405.202L188.544 422.964L195.37 398.124L194.762 396.973C194.294 396.087 193.855 395.469 193.444 395.12C193.049 394.8 192.546 394.706 191.937 394.839C191.327 394.972 190.461 395.334 189.339 395.927C189.28 395.958 189.204 395.885 189.11 395.708C189.017 395.53 189 395.426 189.059 395.395C190.004 394.896 190.764 394.514 191.341 394.247L194.775 392.491L197.897 390.787C198.442 390.462 199.202 390.042 200.177 389.527C200.236 389.496 200.312 389.569 200.406 389.746C200.499 389.923 200.517 390.028 200.458 390.059C199.365 390.635 198.607 391.13 198.182 391.543C197.729 391.971 197.522 392.438 197.563 392.945C197.591 393.497 197.838 394.216 198.305 395.102L209.129 415.612C209.597 416.497 210.028 417.1 210.424 417.42C210.819 417.74 211.307 417.842 211.887 417.724C212.482 417.636 213.326 417.304 214.419 416.728C214.508 416.681 214.599 416.746 214.692 416.923C214.786 417.1 214.788 417.212 214.7 417.259L212.417 418.407C211.146 419.003 210.096 419.519 209.27 419.955C208.325 420.454 207.188 421.091 205.861 421.867L203.67 423.08C203.611 423.111 203.534 423.038 203.441 422.861C203.347 422.684 203.33 422.58 203.389 422.549C204.482 421.972 205.247 421.455 205.685 420.997C206.123 420.539 206.329 420.035 206.302 419.482C206.261 418.976 206.006 418.279 205.539 417.393L196.188 399.675L189.386 424.559L189.947 425.622C190.414 426.508 190.86 427.103 191.285 427.408C191.696 427.757 192.214 427.88 192.839 427.777C193.435 427.689 194.294 427.349 195.416 426.757C195.505 426.71 195.596 426.775 195.689 426.952C195.783 427.13 195.785 427.241 195.697 427.288L193.547 428.366C192.157 429.024 190.99 429.602 190.045 430.101C189.218 430.537 188.171 431.128 186.902 431.873L184.622 433.133C184.563 433.164 184.487 433.091 184.394 432.914C184.3 432.737 184.283 432.632 184.342 432.601C185.435 432.025 186.185 431.515 186.594 431.073C187.018 430.66 187.224 430.193 187.213 429.67C187.172 429.163 186.917 428.467 186.45 427.581L175.626 407.072C175.158 406.186 174.719 405.568 174.308 405.219C173.883 404.914 173.381 404.821 172.801 404.938C172.221 405.056 171.384 405.403 170.292 405.979Z" fill="#FCF7B7"/>
<path d="M113.374 412.98C113.307 412.986 113.264 412.89 113.246 412.69C113.227 412.491 113.251 412.388 113.317 412.382C114.448 412.276 115.33 412.21 115.965 412.184L119.511 411.902L123.046 411.521C123.675 411.428 124.521 411.332 125.585 411.233C125.652 411.226 125.694 411.323 125.713 411.522C125.732 411.722 125.708 411.825 125.641 411.831C124.411 411.946 123.538 412.112 123.021 412.328C122.472 412.547 122.136 412.897 122.013 413.378C121.857 413.862 121.828 414.62 121.924 415.65L123.054 427.718C124.042 427.525 124.914 427.159 125.668 426.618C126.392 426.115 127.137 425.29 127.901 424.146C128.633 423.004 129.485 421.364 130.459 419.228C131.823 416.249 132.848 414.124 133.534 412.852C134.223 411.614 134.724 410.88 135.038 410.649C135.352 410.418 135.775 410.278 136.307 410.228L141.892 409.705C141.992 409.696 142.051 409.791 142.07 409.99C142.088 410.19 142.048 410.294 141.948 410.304C140.821 410.443 139.87 410.85 139.095 411.527C138.323 412.236 137.621 413.157 136.989 414.29C136.357 415.422 135.425 417.287 134.193 419.884C133.135 422.196 132.071 423.906 131.001 425.012C129.901 426.155 128.6 426.948 127.098 427.39C130.115 427.376 132.483 427.942 134.2 429.089C135.887 430.273 136.829 431.912 137.025 434.006C137.165 435.502 136.891 436.869 136.202 438.108C135.479 439.349 134.433 440.353 133.063 441.118C131.662 441.92 130.048 442.407 128.219 442.578C127.455 442.65 126.569 442.682 125.562 442.676C125.16 442.68 124.692 442.69 124.157 442.707C123.621 442.724 123.038 442.761 122.406 442.821C121.476 442.908 120.315 443.05 118.925 443.247L116.287 443.545C116.22 443.551 116.178 443.454 116.159 443.255C116.14 443.055 116.164 442.953 116.231 442.946C117.494 442.828 118.399 442.643 118.945 442.39C119.495 442.171 119.848 441.819 120.004 441.335C120.159 440.851 120.191 440.11 120.097 439.113L117.935 416.024C117.838 414.993 117.668 414.255 117.425 413.808C117.182 413.361 116.77 413.081 116.19 412.968C115.576 412.858 114.637 412.862 113.374 412.98ZM133.052 435.636C132.828 433.242 131.999 431.375 130.566 430.033C129.102 428.728 127.107 428.194 124.58 428.431C123.948 428.49 123.468 428.552 123.139 428.616L124.077 438.64C124.202 439.969 124.655 440.866 125.436 441.33C126.187 441.829 127.111 442.028 128.208 441.925C131.799 441.589 133.414 439.492 133.052 435.636Z" fill="#FCF7B7"/>
</svg>
