<svg width="37" height="36" viewBox="0 0 37 36" fill="none" xmlns="http://www.w3.org/2000/svg">
<path d="M34.8686 20.8822C34.3729 20.7254 33.8361 20.7738 33.3754 21.0169C32.9146 21.2601 32.5673 21.6782 32.4091 22.1801C31.4795 25.0644 29.6673 27.5725 27.236 29.3394C24.8048 31.1063 21.8814 32.0399 18.8912 32.0043C15.1927 32.0469 11.6285 30.5995 8.98009 27.9792C6.33169 25.359 4.8153 21.7799 4.76345 18.0268C4.8153 14.2736 6.33169 10.6945 8.98009 8.07431C11.6285 5.45409 15.1927 4.0066 18.8912 4.04926C22.2315 4.04108 25.469 5.22099 28.0409 7.3839L23.771 6.66505C23.5151 6.62232 23.2534 6.63135 23.001 6.69162C22.7485 6.75189 22.5103 6.8622 22.3 7.01622C22.0897 7.17024 21.9115 7.36493 21.7757 7.58909C21.6398 7.81325 21.5489 8.06246 21.5082 8.32239C21.4661 8.58208 21.475 8.84765 21.5344 9.10383C21.5938 9.36002 21.7025 9.60177 21.8543 9.81517C22.0061 10.0286 22.1979 10.2094 22.4188 10.3473C22.6397 10.4852 22.8853 10.5774 23.1414 10.6187L31.4843 12.0164H31.8188C32.0469 12.0162 32.2733 11.9756 32.4878 11.8966C32.5599 11.8689 32.6265 11.8283 32.6845 11.7768C32.8256 11.7236 32.9582 11.6496 33.0781 11.5572L33.2552 11.3375C33.2552 11.2377 33.4323 11.1578 33.511 11.038C33.5897 10.9182 33.511 10.8383 33.6093 10.7585C33.6637 10.6422 33.7098 10.5221 33.7471 10.399L35.2228 2.4119C35.2719 2.14968 35.2696 1.88021 35.2161 1.61888C35.1626 1.35755 35.0589 1.10949 34.9109 0.888837C34.7629 0.668188 34.5735 0.479283 34.3536 0.332905C34.1336 0.186528 33.8874 0.0855446 33.629 0.0357225C33.3706 -0.0140996 33.1051 -0.0117856 32.8476 0.0425327C32.5901 0.096851 32.3456 0.20211 32.1282 0.352299C31.6891 0.65562 31.3867 1.12354 31.2875 1.65312L30.7562 4.54846C27.4624 1.6516 23.25 0.0565505 18.8912 0.0556903C14.1491 0.0130935 9.58389 1.88134 6.19749 5.25049C2.81108 8.61964 0.880053 13.2145 0.828125 18.0268C0.880053 22.8391 2.81108 27.4339 6.19749 30.803C9.58389 34.1722 14.1491 36.0404 18.8912 35.9978C22.7344 36.0578 26.4949 34.8639 29.6192 32.5921C32.7435 30.3202 35.0664 27.0904 36.246 23.3782C36.3207 23.1225 36.3441 22.8543 36.3149 22.5893C36.2858 22.3243 36.2046 22.0679 36.0762 21.8353C35.9478 21.6027 35.7748 21.3985 35.5674 21.2348C35.3601 21.0711 35.1224 20.9512 34.8686 20.8822Z" fill="white" fill-opacity="0.5"/>
</svg>
